<?xml version="1.0" standalone="no"?>
<!DOCTYPE svg PUBLIC "-//W3C//DTD SVG 20010904//EN"
 "http://www.w3.org/TR/2001/REC-SVG-20010904/DTD/svg10.dtd">
<svg version="1.0" xmlns="http://www.w3.org/2000/svg"
 width="1024.000000pt" height="1024.000000pt" viewBox="0 0 1024.000000 1024.000000"
 preserveAspectRatio="xMidYMid meet">

<g transform="translate(0.000000,1024.000000) scale(0.100000,-0.100000)"
fill="#000000" stroke="none">
<path d="M0 5120 l0 -5120 5120 0 5120 0 0 5120 0 5120 -5120 0 -5120 0 0
-5120z m5535 3681 c323 -41 525 -87 822 -186 313 -104 552 -217 828 -388 79
-49 351 -253 445 -332 385 -328 763 -849 992 -1369 253 -575 352 -1208 283
-1816 -33 -291 -146 -730 -251 -978 -222 -520 -498 -933 -873 -1301 -344 -338
-776 -620 -1221 -796 -365 -145 -647 -218 -1030 -266 -55 -7 -225 -13 -405
-13 -286 -1 -324 2 -495 27 -537 78 -1054 277 -1545 595 -441 285 -859 723
-1145 1202 -269 448 -434 935 -496 1455 -34 286 -28 776 12 1051 34 234 191
813 229 844 18 15 109 24 100 10 -8 -13 8 -13 21 0 18 18 45 -252 36 -367 -8
-97 -10 -104 -37 -125 -40 -31 -110 -68 -130 -68 -9 0 -14 -4 -11 -9 3 -4 89
-6 191 -3 132 3 185 2 185 -6 0 -6 -15 -76 -34 -154 -69 -289 -90 -503 -83
-825 6 -270 26 -422 93 -687 117 -466 353 -913 690 -1306 340 -397 753 -688
1276 -899 423 -171 948 -250 1403 -212 993 83 1871 583 2429 1384 309 444 470
824 561 1330 25 137 40 554 27 725 -17 228 -82 549 -151 744 -124 353 -268
630 -471 903 -270 366 -531 607 -915 846 -279 173 -454 253 -775 353 -224 69
-303 85 -590 121 -153 20 -510 19 -698 0 -402 -42 -817 -173 -1193 -376 -323
-173 -661 -441 -814 -645 l-56 -74 -203 0 c-112 0 -252 -3 -311 -7 l-108 -6 7
29 c11 44 127 219 215 326 169 204 406 430 607 579 565 419 1299 678 2004 708
177 7 453 -1 585 -18z m283 -810 c20 -10 89 -31 152 -46 63 -16 149 -43 190
-61 41 -18 118 -48 171 -67 53 -20 112 -43 130 -53 l33 -17 -46 -42 c-48 -43
-704 -443 -861 -524 l-89 -46 -196 4 c-108 1 -345 6 -527 10 l-330 6 77 50
c43 28 119 78 170 113 274 185 512 340 667 437 95 59 224 141 285 181 61 41
117 74 124 74 7 0 29 -8 50 -19z m1141 -580 c47 -32 116 -86 153 -119 37 -34
80 -69 95 -79 16 -9 40 -27 55 -39 l27 -22 -75 -56 c-78 -59 -108 -67 -147
-41 -38 24 -128 52 -269 82 -124 26 -149 28 -360 28 l-227 0 37 38 c52 53 156
123 297 199 66 36 151 84 190 106 l69 41 34 -40 c19 -22 73 -66 121 -98z m567
-556 c49 -55 78 -92 64 -82 -14 10 -70 47 -124 84 l-100 66 24 19 c13 10 29
18 35 16 7 -2 52 -48 101 -103z m-786 0 c52 -9 142 -33 199 -52 289 -96 501
-238 727 -484 113 -123 260 -330 251 -352 -3 -8 -52 -45 -109 -82 -57 -37
-134 -89 -173 -115 -72 -48 -265 -154 -269 -148 -2 2 -17 32 -34 68 -67 141
-187 294 -295 376 -81 61 -241 138 -342 165 -113 30 -338 37 -458 15 -104 -20
-266 -81 -356 -133 -186 -110 -406 -405 -472 -632 -50 -171 -60 -241 -66 -461
-6 -236 2 -332 43 -494 101 -399 372 -723 716 -856 95 -37 182 -50 332 -50
153 0 235 15 356 64 147 59 294 183 393 330 92 136 128 229 142 361 3 33 8 80
11 104 l6 44 -171 -6 c-95 -4 -311 -4 -481 0 l-310 6 0 166 c0 91 3 236 7 323
l6 156 801 4 c441 2 809 8 819 12 18 9 19 -6 14 -410 -5 -466 -7 -479 -76
-673 -88 -245 -222 -444 -439 -652 -285 -274 -713 -449 -1097 -449 -102 0
-241 21 -394 60 -282 71 -481 173 -681 350 -412 362 -629 830 -657 1409 -12
266 53 688 143 927 14 38 32 87 39 109 20 57 117 236 180 330 70 105 245 288
354 370 183 138 510 275 729 304 42 6 91 13 107 15 72 10 414 -3 505 -19z
m-1607 -115 c-200 -196 -311 -330 -392 -475 l-22 -40 -281 0 -280 0 4 -1595
c2 -877 2 -1624 -2 -1659 -6 -59 -9 -67 -47 -100 -22 -20 -96 -65 -164 -100
-68 -35 -149 -80 -179 -99 -30 -19 -82 -47 -115 -62 -33 -15 -83 -46 -111 -68
l-52 -41 -7 242 c-4 133 -8 971 -9 1862 l-2 1619 -662 2 c-364 0 -665 4 -669
8 -4 4 -9 148 -11 319 l-4 312 1567 0 1567 0 -129 -125z m-554 -842 c-11 -40
-33 -113 -48 -163 -16 -49 -32 -103 -35 -118 -18 -76 -39 -268 -45 -402 -6
-149 -6 -150 -30 -153 l-24 -4 6 129 c4 70 7 273 7 450 l0 322 88 4 c48 1 90
4 94 5 4 1 -2 -31 -13 -70z m-1387 -234 l3 -296 -30 -15 c-16 -9 -73 -44 -125
-78 -52 -35 -151 -94 -220 -132 -181 -101 -311 -177 -407 -240 -108 -70 -225
-135 -231 -128 -3 3 -8 156 -10 340 l-5 334 78 48 c94 59 233 146 380 240 61
39 126 78 145 88 19 10 53 30 75 45 22 15 67 41 99 59 54 28 67 31 152 31 l93
0 3 -296z m2963 276 c-3 -5 -12 -10 -18 -10 -7 0 -6 4 3 10 19 12 23 12 15 0z
m245 -110 c0 -5 9 -10 20 -10 13 0 22 -10 28 -32 11 -38 9 -40 -108 -120 -41
-29 -126 -90 -188 -136 -110 -82 -172 -110 -172 -78 0 7 -13 19 -30 26 -28 12
-42 40 -20 40 6 0 10 9 10 20 0 14 -7 20 -22 20 -14 0 -18 3 -12 8 6 4 14 17
18 30 4 12 12 22 17 22 6 0 8 -4 5 -8 -2 -4 -1 -14 5 -22 6 -11 9 -6 9 17 0
23 9 40 35 65 20 18 40 33 44 33 5 0 21 12 35 28 14 15 30 27 36 27 7 0 23 9
37 20 14 11 33 20 42 20 9 0 39 9 66 19 54 21 145 27 145 11z m-687 -534 c4 4
7 2 7 -4 0 -6 8 -12 18 -14 12 -3 4 -11 -27 -27 l-44 -23 6 39 c4 21 7 52 8
68 1 29 1 29 12 -8 7 -22 15 -35 20 -31z m147 40 c0 -3 -4 -8 -10 -11 -5 -3
-10 -1 -10 4 0 6 5 11 10 11 6 0 10 -2 10 -4z m-30 -23 c0 -7 -63 -33 -68 -28
-3 3 4 8 17 12 16 4 19 8 10 13 -7 5 -1 7 14 7 15 -1 27 -3 27 -4z m-2651
-999 c-6 -7 -21 -16 -32 -20 -12 -3 -76 -37 -142 -76 -66 -38 -169 -98 -230
-132 -60 -34 -160 -92 -221 -128 l-112 -66 -40 101 c-22 56 -51 138 -65 182
-26 85 -71 284 -66 289 2 2 96 59 209 126 113 68 246 149 295 180 50 32 160
97 245 145 85 48 157 93 160 99 3 6 6 -146 8 -338 1 -243 -1 -353 -9 -362z
m2915 484 c3 -117 5 -276 3 -353 l-2 -139 -63 -41 c-108 -70 -184 -116 -187
-113 -2 2 -32 51 -68 110 -82 136 -106 207 -121 364 l-12 124 33 18 c18 9 67
42 108 72 65 48 278 169 296 170 4 0 10 -96 13 -212z m-1494 -865 c78 -152
163 -294 214 -356 23 -29 50 -64 60 -78 l17 -26 -106 -69 c-58 -38 -144 -96
-192 -130 -49 -33 -109 -73 -135 -88 l-48 -28 0 395 0 395 63 46 c34 25 64 45
67 45 3 1 30 -47 60 -106z m-1417 -203 c-2 -220 -5 -294 -15 -308 -33 -44
-164 -154 -229 -193 -67 -40 -73 -42 -83 -25 -17 28 -168 253 -224 336 l-52
75 31 27 c55 47 341 234 439 286 74 39 135 81 135 91 0 1 -1 -130 -2 -289z
m12 -737 c-4 -65 -11 -127 -16 -138 -4 -11 -8 -14 -8 -8 -1 7 -23 37 -50 67
-58 64 -80 99 -56 90 8 -4 15 -10 15 -15 0 -5 9 -9 20 -9 18 0 26 20 21 53 0
4 4 7 9 7 6 0 10 6 8 14 -3 14 37 56 55 56 5 0 6 -45 2 -117z m5490 -177 c85
-39 135 -116 135 -208 0 -61 -24 -109 -85 -168 l-46 -45 -83 0 c-78 0 -87 2
-128 31 -104 75 -136 182 -84 288 56 115 175 157 291 102z"/>
<path d="M6225 7811 c22 -11 47 -20 55 -20 17 0 -34 23 -71 33 -13 3 -6 -3 16
-13z"/>
<path d="M3830 6448 c0 -19 2 -20 10 -8 13 19 13 30 0 30 -5 0 -10 -10 -10
-22z"/>
<path d="M4425 5867 c-4 -10 -5 -21 -1 -24 10 -10 18 4 13 24 -4 17 -4 17 -12
0z"/>
<path d="M4421 5714 c0 -11 3 -14 6 -6 3 7 2 16 -1 19 -3 4 -6 -2 -5 -13z"/>
<path d="M6008 5463 c6 -2 18 -2 25 0 6 3 1 5 -13 5 -14 0 -19 -2 -12 -5z"/>
<path d="M3102 3580 c0 -14 2 -19 5 -12 2 6 2 18 0 25 -3 6 -5 1 -5 -13z"/>
<path d="M8664 2725 c-12 -19 -14 -36 -8 -77 l7 -53 13 32 c23 54 33 46 18
-14 -17 -71 -18 -130 -2 -139 26 -16 38 29 38 143 0 101 -2 113 -19 123 -27
14 -28 13 -47 -15z"/>
<path d="M8494 2733 c-21 -4 -21 -8 -17 -121 5 -137 6 -142 31 -142 18 0 20
10 26 98 4 53 9 114 12 135 6 39 3 41 -52 30z"/>
<path d="M8574 2578 c3 -29 6 -65 6 -80 0 -24 4 -28 30 -28 35 0 37 11 15 84
-27 90 -61 106 -51 24z"/>
</g>
</svg>
